<svg t="1677563041318" class="icon" viewBox="0 0 1024 1024" version="1.1"
    xmlns="http://www.w3.org/2000/svg" p-id="2751" width="200" height="200">
    <path
        d="M512 992C246.912 992 32 777.088 32 512 32 246.912 246.912 32 512 32c265.088 0 480 214.912 480 480 0 265.088-214.912 480-480 480z m-59.072-512v236.32a54.144 54.144 0 1 0 108.288 0V480a54.144 54.144 0 1 0-108.288 0z m53.76-226.464c-14.72 0-27.232 4.544-37.568 15.136-11.04 9.856-16.192 22.72-16.192 38.656 0 15.136 5.152 28 16.192 38.624 10.336 10.592 22.848 15.904 37.6 15.904a57.6 57.6 0 0 0 39.04-15.168c10.304-10.592 15.456-23.456 15.456-39.36s-5.12-28.8-15.456-38.656c-10.304-10.56-23.584-15.136-39.04-15.136z"
        p-id="2752"></path>
</svg>