<svg t="1676255096688" class="icon" viewBox="0 0 1024 1024" version="1.1" xmlns="http://www.w3.org/2000/svg" p-id="8901" width="200" height="200"><path d="M725.3504 908.3904H284.928c-90.2656 0-163.3792-73.1648-163.3792-163.3792V318.464c0-90.2656 73.1648-163.3792 163.3792-163.3792h440.4224c90.2656 0 163.3792 73.1648 163.3792 163.3792v426.496c0 90.2656-73.1136 163.4304-163.3792 163.4304z" fill="#FF5D50" p-id="8902"></path><path d="M625.2032 261.0176h-228.352c-30.9248 0-55.9616-25.0368-55.9616-55.9616v-74.24c0-30.9248 25.0368-55.9616 55.9616-55.9616h228.3008c30.9248 0 55.9616 25.0368 55.9616 55.9616v74.24c0.0512 30.8736-24.9856 55.9616-55.9104 55.9616z" fill="#FFDF99" p-id="8903"></path><path d="M728.6272 745.6256m-205.4656 0a205.4656 205.4656 0 1 0 410.9312 0 205.4656 205.4656 0 1 0-410.9312 0Z" fill="#FFDF99" p-id="8904"></path><path d="M824.4224 827.5968h-110.5408a46.08 46.08 0 0 1-46.08-46.08v-95.744a46.08 46.08 0 0 1 92.16 0v49.664h64.4608a46.08 46.08 0 0 1 0 92.16z" fill="#FF5D50" p-id="8905"></path><path d="M564.5312 508.16H291.6864c-31.1296 0-56.32-25.1904-56.32-56.32s25.1904-56.32 56.32-56.32h272.8448c31.1296 0 56.32 25.1904 56.32 56.32s-25.2416 56.32-56.32 56.32zM451.1232 705.2288H291.6864c-31.1296 0-56.32-25.1904-56.32-56.32s25.1904-56.32 56.32-56.32h159.4368c31.1296 0 56.32 25.1904 56.32 56.32 0 31.0784-25.2416 56.32-56.32 56.32z" fill="#FFDF99" p-id="8906"></path></svg>