<svg t="1675911533748" class="icon" viewBox="0 0 1026 1024" version="1.1" xmlns="http://www.w3.org/2000/svg" p-id="19914" width="200" height="200"><path d="M1026.819 511.839c0 282.684-229.177 511.839-511.86 511.839-282.684 0-511.817-229.155-511.817-511.839C3.142 229.155 232.275 0 514.959 0c282.684 0 511.86 229.155 511.86 511.839z" fill="#E2E5E8" p-id="19915"></path><path d="M722.883 330.409H898.25s30.378-5.523 33.141-34.521c2.762-28.998-13.118-64.209-59.377-60.757 0 0-20.021-36.678-51.091-17.951 0 0-23.474-35.901-66.28-8.285 0 0-20.713 9.666-19.332 44.187 0 0-34.521 0-34.521 33.141 0 33.14 22.093 44.186 22.093 44.186z" fill="#FFFFFF" p-id="19916"></path><path d="M898.25 335.933H722.883a5.356 5.356 0 0 1-2.459-0.583c-1.035-0.518-25.158-12.988-25.158-49.127 0-26.84 20.174-36.355 34.479-38.275 0.733-33.464 21.619-43.626 22.568-44.058 10.981-7.142 22.46-10.96 33.442-10.96 18.857 0 31.198 11.025 36.635 17.195 5.329-2.524 10.701-3.797 16.053-3.797 19.159 0 31.953 16.182 36.549 23.107 19.656-0.971 35.859 5.351 46.971 17.584 11.133 12.233 16.699 30.702 14.931 49.387-2.503 26.236-25.719 37.261-37.65 39.44a5.151 5.151 0 0 1-0.994 0.087z m-173.878-11.047h173.316c3.583-0.777 26.021-6.624 28.2-29.516 1.488-15.664-3.021-30.961-12.104-40.929-9.493-10.443-23.172-15.168-41.36-13.809-2.287 0.323-4.207-0.971-5.243-2.848-0.129-0.194-11.479-20.411-28.738-20.411-4.747 0-9.688 1.532-14.672 4.531-2.546 1.532-5.804 0.777-7.465-1.683-0.432-0.668-11.025-16.246-30.551-16.246-8.825 0-18.296 3.215-28.113 9.558-1.315 0.69-18.016 9.277-16.808 39.332a5.533 5.533 0 0 1-5.501 5.74c-2.979 0.022-29.021 0.949-29.021 27.617 0.001 25.46 14.046 36.14 18.06 38.664z" fill="#1D305B" p-id="19917"></path><path d="M208.477 264.431h175.367s30.378-5.523 33.14-34.521c2.761-28.998-13.118-64.209-59.376-60.756 0 0-20.021-36.679-51.091-17.951 0 0-23.474-35.902-66.281-8.285 0 0-20.712 9.666-19.331 44.187 0 0-34.521 0-34.521 33.14s22.093 44.186 22.093 44.186z" fill="#FFFFFF" p-id="19918"></path><path d="M383.844 269.954H208.477a5.368 5.368 0 0 1-2.46-0.582c-1.035-0.518-25.157-12.989-25.157-49.128 0-26.84 20.173-36.355 34.478-38.275 0.734-33.464 21.619-43.626 22.568-44.058 10.981-7.141 22.46-10.96 33.442-10.96 18.857 0 31.199 11.025 36.636 17.196 5.329-2.524 10.702-3.797 16.052-3.797 19.159 0 31.954 16.182 36.549 23.107 19.504-0.82 35.88 5.372 46.97 17.584 11.133 12.234 16.7 30.702 14.93 49.387-2.502 26.236-25.718 37.261-37.649 39.44a5.116 5.116 0 0 1-0.992 0.086z m-173.879-11.046h173.317c3.582-0.777 26.02-6.624 28.199-29.516 1.489-15.664-3.021-30.961-12.104-40.929-9.493-10.443-23.129-15.211-41.36-13.809-2.309 0.259-4.208-0.971-5.243-2.848-0.129-0.194-11.479-20.411-28.739-20.411-4.747 0-9.688 1.532-14.671 4.531-2.546 1.553-5.804 0.776-7.465-1.683-0.432-0.669-11.025-16.247-30.551-16.247-8.824 0-18.296 3.215-28.113 9.558-1.316 0.69-18.015 9.277-16.807 39.333 0.064 1.489-0.496 2.956-1.532 4.035s-2.481 1.705-3.97 1.705c-2.977 0.021-29.019 0.949-29.019 27.617 0 25.46 14.046 36.139 18.058 38.664z" fill="#1D305B" p-id="19919"></path><path d="M116.5 503.791h165.895v233.318H33.542V610.095z" fill="#FFFFFF" p-id="19920"></path><path d="M287.918 742.634h-259.9V608.195l1.166-1.51 84.619-108.417h174.116v244.366zM39.065 731.587h237.807V509.314H119.197L39.065 611.993v119.594z" fill="#1D305B" p-id="19921"></path><path d="M128.733 541.376h106.304v102.42H65.646v-23.323z" fill="#8DD1E3" p-id="19922"></path><path d="M235.037 649.318H65.646a5.533 5.533 0 0 1-5.523-5.522v-23.323c0-1.252 0.432-2.46 1.208-3.453l63.087-79.097a5.483 5.483 0 0 1 4.315-2.07h106.303a5.534 5.534 0 0 1 5.523 5.523v102.42a5.531 5.531 0 0 1-5.522 5.522zM71.17 638.272h158.343v-91.373h-98.126L71.17 622.414v15.858z" fill="#1D305B" p-id="19923"></path><path d="M193.547 664.53h37.606" fill="#8DD1E3" p-id="19924"></path><path d="M231.153 670.053h-37.606a5.533 5.533 0 0 1-5.523-5.522 5.534 5.534 0 0 1 5.523-5.524h37.606a5.534 5.534 0 0 1 5.523 5.524 5.533 5.533 0 0 1-5.523 5.522zM479.985 206.436a5.584 5.584 0 0 1-3.258-1.057c-2.459-1.791-2.999-5.243-1.208-7.724 0.842-1.144 20.777-28.113 50.573-29.235 16.765-0.54 34.047 7.53 49.775 24.359 8.177-7.875 27.077-23.129 51.437-23.561 0.366-0.021 0.711-0.021 1.078-0.021 19.354 0 37.692 9.429 54.543 28.005a5.527 5.527 0 0 1-0.388 7.811c-2.287 2.028-5.761 1.855-7.811-0.388-14.65-16.182-30.249-24.38-46.366-24.38-0.28 0-0.561 0-0.842 0.021-27.25 0.475-47.38 23.971-47.573 24.208a5.512 5.512 0 0 1-4.229 1.963 5.516 5.516 0 0 1-4.207-1.941c-14.586-17.196-29.322-25.632-45.007-25.028-24.488 0.906-41.878 24.467-42.051 24.704a5.552 5.552 0 0 1-4.466 2.264zM179.673 363.333a5.578 5.578 0 0 1-3.257-1.057c-2.46-1.791-2.999-5.243-1.208-7.724 0.841-1.143 20.777-28.113 50.573-29.235 0.625-0.021 1.272-0.043 1.92-0.043 16.656 0 32.709 8.198 47.855 24.402 8.177-7.875 27.078-23.129 51.436-23.561 19.526 0.216 38.448 9.062 55.622 27.984a5.529 5.529 0 0 1-0.388 7.81c-2.287 2.028-5.761 1.855-7.811-0.388-14.649-16.182-30.249-24.359-46.366-24.359h-0.777c-27.142 0.431-47.444 23.97-47.66 24.208a5.463 5.463 0 0 1-4.208 1.963 5.511 5.511 0 0 1-4.207-1.942c-14.585-17.195-29.882-25.459-45.007-25.027-24.488 0.906-41.878 24.467-42.051 24.704a5.545 5.545 0 0 1-4.466 2.265z" fill="#1D305B" p-id="19925"></path><path d="M993.27 732.924V447.263c0-13.831-11.22-25.05-25.05-25.05H326.884c-13.831 0-25.05 11.219-25.05 25.05v285.661H993.27z" fill="#E56760" p-id="19926"></path><path d="M993.27 738.448H301.834a5.534 5.534 0 0 1-5.523-5.524V447.263c0-16.851 13.723-30.573 30.573-30.573H968.22c16.851 0 30.572 13.722 30.572 30.573v285.661a5.533 5.533 0 0 1-5.522 5.524z m-685.912-11.047h680.388V447.263c0-10.767-8.761-19.526-19.526-19.526H326.884c-10.767 0-19.526 8.759-19.526 19.526v280.138z" fill="#1D305B" p-id="19927"></path><path d="M347.144 474.189h41.49v220.589h-41.49zM441.796 474.189h41.447v220.589h-41.447zM536.405 474.189h41.49v220.589h-41.49zM631.014 474.189h41.49v220.589h-41.49zM712.44 474.189h41.447v220.589H712.44zM807.05 474.189h41.49v220.589h-41.49zM901.659 474.189h41.49v220.589h-41.49z" fill="#D64B4A" p-id="19928"></path><path d="M17.188 738.081h970.947v62.203H17.188z" fill="#7B94A9" p-id="19929"></path><path d="M993.657 805.807H11.664v-73.249h981.993v73.249zM22.71 794.76h959.9v-51.156H22.71v51.156z" fill="#1D305B" p-id="19930"></path><path d="M231.153 789.669c0 39.094-31.695 70.811-70.854 70.811-39.095 0-70.79-31.717-70.79-70.811 0-39.117 31.694-70.833 70.79-70.833 39.159 0 70.854 31.716 70.854 70.833z" fill="#7B94A9" p-id="19931"></path><path d="M160.299 866.003c-42.073 0-76.313-34.241-76.313-76.334 0-42.095 34.24-76.356 76.313-76.356 42.116 0 76.377 34.262 76.377 76.356 0 42.093-34.261 76.334-76.377 76.334z m0-141.645c-35.988 0-65.267 29.3-65.267 65.311 0 36.009 29.278 65.288 65.267 65.288 36.031 0 65.331-29.279 65.331-65.288 0-36.011-29.3-65.311-65.331-65.311z" fill="#1D305B" p-id="19932"></path><path d="M192.641 789.669c0 17.842-14.434 32.299-32.321 32.299-17.865 0-32.32-14.457-32.32-32.299 0-17.844 14.455-32.321 32.32-32.321 17.887 0 32.321 14.477 32.321 32.321z" fill="#1D305B" p-id="19933"></path><path d="M749.658 789.669c0 39.094-31.694 70.811-70.811 70.811s-70.833-31.717-70.833-70.811c0-39.117 31.717-70.833 70.833-70.833s70.811 31.716 70.811 70.833z" fill="#7B94A9" p-id="19934"></path><path d="M678.848 866.003c-42.095 0-76.356-34.241-76.356-76.334 0-42.095 34.262-76.356 76.356-76.356 42.094 0 76.334 34.262 76.334 76.356 0 42.093-34.241 76.334-76.334 76.334z m0-141.645c-36.011 0-65.311 29.3-65.311 65.311 0 36.009 29.3 65.288 65.311 65.288 36.01 0 65.288-29.279 65.288-65.288 0-36.011-29.279-65.311-65.288-65.311z" fill="#1D305B" p-id="19935"></path><path d="M711.168 789.669c0 17.842-14.456 32.299-32.299 32.299-17.908 0-32.343-14.457-32.343-32.299 0-17.844 14.435-32.321 32.343-32.321 17.843 0 32.299 14.477 32.299 32.321z" fill="#1D305B" p-id="19936"></path><path d="M919.372 789.669c0 39.094-31.694 70.811-70.811 70.811-39.117 0-70.833-31.717-70.833-70.811 0-39.117 31.716-70.833 70.833-70.833s70.811 31.716 70.811 70.833z" fill="#7B94A9" p-id="19937"></path><path d="M848.562 866.003c-42.095 0-76.356-34.241-76.356-76.334 0-42.095 34.262-76.356 76.356-76.356 42.094 0 76.335 34.262 76.335 76.356-0.001 42.093-34.242 76.334-76.335 76.334z m0-141.645c-36.01 0-65.31 29.3-65.31 65.311 0 36.009 29.3 65.288 65.31 65.288s65.288-29.279 65.288-65.288c0-36.011-29.279-65.311-65.288-65.311z" fill="#1D305B" p-id="19938"></path><path d="M880.882 789.669c0 17.842-14.456 32.299-32.299 32.299-17.907 0-32.342-14.457-32.342-32.299 0-17.844 14.435-32.321 32.342-32.321 17.843 0 32.299 14.477 32.299 32.321zM212.36 894.095h155.517v11.047H212.36zM394.373 894.095h55.233v11.047h-55.233zM493.21 894.095h360.982v11.047H493.21z" fill="#1D305B" p-id="19939"></path></svg>