<svg t="1672994644919" class="icon" viewBox="0 0 1024 1024" version="1.1" xmlns="http://www.w3.org/2000/svg" p-id="4142" width="200" height="200"><path d="M808.192 246.528a320.16 320.16 0 0 0-592.352 0A238.592 238.592 0 0 0 32 479.936c0 132.352 107.648 240 240 240h91.488a32 32 0 1 0 0-64H272a176.192 176.192 0 0 1-176-176 175.04 175.04 0 0 1 148.48-173.888l19.04-2.976 6.24-18.24C305.248 181.408 402.592 111.936 512 111.936a256 256 0 0 1 242.208 172.896l6.272 18.24 19.04 2.976A175.04 175.04 0 0 1 928 479.936c0 97.024-78.976 176-176 176h-97.28a32 32 0 1 0 0 64h97.28c132.352 0 240-107.648 240-240a238.592 238.592 0 0 0-183.808-233.408z" p-id="4143"></path><path d="M649.792 789.888L544 876.48V447.936a32 32 0 0 0-64 0V876.48l-106.752-87.424a31.968 31.968 0 1 0-40.544 49.504l159.04 130.24a32 32 0 0 0 40.576 0l158.048-129.44a32 32 0 1 0-40.576-49.472z" p-id="4144"></path></svg>