<svg t="1676255031013" class="icon" viewBox="0 0 1024 1024" version="1.1" xmlns="http://www.w3.org/2000/svg" p-id="5747" width="200" height="200"><path d="M813.9776 138.7008H210.8416c-54.7328 0-99.1232 44.3904-99.1232 99.1232v476.7232c0 54.7328 44.3904 99.1232 99.1232 99.1232h190.2592c9.1136 0 17.8176 3.84 23.9616 10.5984l71.2192 78.5408a32.3584 32.3584 0 0 0 47.0016 1.024l79.616-80.5376a32.44544 32.44544 0 0 1 22.9888-9.6256h168.0896c54.7328 0 99.072-44.3904 99.072-99.072V237.7728c0.0512-54.7328-44.3392-99.072-99.072-99.072z m-521.984 407.04c-32.5632 0-58.9312-26.368-58.9312-58.9312s26.368-58.9312 58.9312-58.9312c32.5632 0 58.9312 26.368 58.9312 58.9312s-26.368 58.9312-58.9312 58.9312z m224.256 0c-32.5632 0-58.9312-26.368-58.9312-58.9312s26.368-58.9312 58.9312-58.9312 58.9312 26.368 58.9312 58.9312-26.368 58.9312-58.9312 58.9312z m224.256 0c-32.5632 0-58.9312-26.368-58.9312-58.9312s26.368-58.9312 58.9312-58.9312 58.9312 26.368 58.9312 58.9312-26.368 58.9312-58.9312 58.9312z" fill="#FC7032" p-id="5748"></path><path d="M813.9776 138.7008H210.8416c-54.7328 0-99.1232 44.3904-99.1232 99.1232v476.672c0 54.7328 44.3904 99.1232 99.1232 99.1232h190.2592c9.1136 0 17.8176 3.84 23.9616 10.5984l15.0016 16.5376c262.1952-78.2336 453.376-321.1264 453.376-608.768 0-19.0976-0.8704-37.9904-2.56-56.6784-18.176-22.3232-45.824-36.608-76.9024-36.608z m-521.984 407.04c-32.5632 0-58.9312-26.368-58.9312-58.9312 0-32.5632 26.368-58.9312 58.9312-58.9312 32.5632 0 58.9312 26.368 58.9312 58.9312 0.0512 32.5632-26.368 58.9312-58.9312 58.9312z m224.256 0c-32.5632 0-58.9312-26.368-58.9312-58.9312 0-32.5632 26.368-58.9312 58.9312-58.9312 32.5632 0 58.9312 26.368 58.9312 58.9312 0.0512 32.5632-26.368 58.9312-58.9312 58.9312z m224.256 0c-32.5632 0-58.9312-26.368-58.9312-58.9312 0-32.5632 26.368-58.9312 58.9312-58.9312 32.5632 0 58.9312 26.368 58.9312 58.9312 0 32.5632-26.368 58.9312-58.9312 58.9312z" fill="#FF7E3E" p-id="5749"></path><path d="M210.8416 138.7008c-54.7328 0-99.1232 44.3904-99.1232 99.1232v403.2c132.096-5.5808 253.696-51.456 352.9216-125.696a58.9312 58.9312 0 0 1-7.3728-28.5184c0-32.5632 26.368-58.9312 58.9312-58.9312 12.544 0 24.1664 3.9424 33.7408 10.6496 76.6464-82.5344 131.6352-185.4976 155.8528-299.8272H210.8416z m81.152 407.04c-32.5632 0-58.9312-26.368-58.9312-58.9312 0-32.5632 26.368-58.9312 58.9312-58.9312 32.5632 0 58.9312 26.368 58.9312 58.9312 0.0512 32.5632-26.368 58.9312-58.9312 58.9312z" fill="#FF9552" p-id="5750"></path><path d="M210.8416 138.7008c-54.7328 0-99.1232 44.3904-99.1232 99.1232v151.04c139.264-42.8544 258.0992-132.3008 338.3296-250.112H210.8416z" fill="#FFA56A" p-id="5751"></path></svg>