<svg t="1675911444164" class="icon" viewBox="0 0 1024 1024" version="1.1" xmlns="http://www.w3.org/2000/svg" p-id="16436" width="128" height="128"><path d="M511.994264 511.994264m-511.994264 0a511.994264 511.994264 0 1 0 1023.988529 0 511.994264 511.994264 0 1 0-1023.988529 0Z" fill="#28176D" p-id="16437"></path><path d="M616.737831 404.853216v-75.021677c0-2.684262-0.137654-5.460293-0.298251-8.259267H466.683007v2.294241l-67.794818 81.365252z" fill="#F8C642" p-id="16438"></path><path d="M534.512239 170.783291c-7.502168-3.005456-15.004335-5.99944-22.506503-5.99944a45.139189 45.139189 0 0 0-45.013006 45.013006v111.775415h149.745101c-3.028398-51.976027-33.81711-122.317452-82.225592-150.788981z" fill="#FC3A64" p-id="16439"></path><path d="M301.93357 434.873357h-36.914336v254.729565h-68.116011v90.370148c0 9.004895 5.99944 15.004335 15.004335 15.004335h90.026012c9.004895 0 15.004335-5.99944 15.004335-15.004335V449.877693c0.011471-9.004895-5.99944-15.004335-15.004335-15.004336z" fill="#F8C642" p-id="16440"></path><path d="M265.019234 434.873357h-53.111676c-9.004895 0-15.004335 5.99944-15.004335 15.004336v239.748171h68.127483z" fill="#FFFFFF" p-id="16441"></path><path d="M827.108248 482.880348v-1.502728c0-41.135739-29.515409-72.842148-68.230723-76.191739H399.186441l-52.239865 62.690131v132.217102h465.409703z" fill="#7B49B6" p-id="16442"></path><path d="M520.471484 600.093114v194.884291h201.594946c40.516294 0 75.021677-33.014126 75.021676-73.518949l15.268173-121.376813z" fill="#FFFFFF" p-id="16443"></path><path d="M346.946576 600.093114v143.871845L393.46231 766.471462c36.019582 18.009791 78.027132 28.505943 118.497541 28.505943h8.47722V600.093114z" fill="#FC3A64" p-id="16444"></path></svg>