<svg t="1656387743334" class="icon" viewBox="0 0 1024 1024" version="1.1" xmlns="http://www.w3.org/2000/svg" p-id="4189" width="200" height="200"><path d="M512 618.666667v-42.666667c0-12.8 8.533333-21.333333 21.333333-21.333333 34.133333 0 64-29.866667 64-64v-42.666667c0-34.133333-29.866667-64-64-64s-64 29.866667-64 64v42.666667c0 8.533333 0 12.8 4.266667 21.333333h-42.666667c0-8.533333-4.266667-12.8-4.266666-21.333333v-42.666667C426.666667 388.266667 473.6 341.333333 533.333333 341.333333S640 388.266667 640 448v42.666667c0 51.2-38.4 93.866667-85.333333 102.4V640h-42.666667v-21.333333z m21.333333 277.333333C332.8 896 170.666667 733.866667 170.666667 533.333333S332.8 170.666667 533.333333 170.666667 896 332.8 896 533.333333 733.866667 896 533.333333 896z m0-42.666667c174.933333 0 320-145.066667 320-320S708.266667 213.333333 533.333333 213.333333 213.333333 358.4 213.333333 533.333333 358.4 853.333333 533.333333 853.333333z m-21.333333-170.666666h42.666667v42.666666h-42.666667v-42.666666z" p-id="4190"></path></svg>