<svg t="1675910905086" class="icon" viewBox="0 0 1024 1024" version="1.1" xmlns="http://www.w3.org/2000/svg" p-id="5131" width="200" height="200"><path d="M528.2816 527.4624m-431.2576 0a431.2576 431.2576 0 1 0 862.5152 0 431.2576 431.2576 0 1 0-862.5152 0Z" fill="#E3413F" p-id="5132"></path><path d="M906.0864 479.488c0-121.7024-51.1488-231.3728-133.0176-308.992-69.2224-46.8992-152.7808-74.2912-242.688-74.2912-239.36 0-433.3568 193.9968-433.3568 433.3568 0 89.9072 27.392 173.4656 74.2912 242.688 77.6192 81.8688 187.2896 133.0176 308.992 133.0176 235.1616 0 425.7792-190.6176 425.7792-425.7792z" fill="#F55651" p-id="5133"></path><path d="M906.0864 479.488c0-121.7024-51.1488-231.3728-133.0176-308.992-69.2224-46.8992-152.7808-74.2912-242.688-74.2912-239.36 0-433.3568 193.9968-433.3568 433.3568 0 89.9072 27.392 173.4656 74.2912 242.688 77.6192 81.8688 187.2896 133.0176 308.992 133.0176 235.1616 0 425.7792-190.6176 425.7792-425.7792z" fill="#F55651" p-id="5134"></path><path d="M819.0976 221.7472A432.31744 432.31744 0 0 0 773.12 170.496c-69.2224-46.8992-152.7808-74.2912-242.688-74.2912-239.36 0-433.3568 193.9968-433.3568 433.3568 0 89.9072 27.392 173.4656 74.2912 242.688 20.8384 21.9648 44.032 41.728 69.12 58.88C31.4368 536.32 207.616 219.392 442.88 170.3936c188.416-39.2192 321.9456 19.968 376.2176 51.3536z" fill="#F67969" p-id="5135"></path><path d="M528.2816 968.96c-243.456 0-441.4976-198.0416-441.4976-441.4976 0-243.456 198.0416-441.4976 441.4976-441.4976s441.4976 198.0416 441.4976 441.4976c0 243.456-198.0416 441.4976-441.4976 441.4976z m0-862.5152c-232.1408 0-421.0176 188.8768-421.0176 421.0176s188.8768 421.0176 421.0176 421.0176 421.0176-188.8768 421.0176-421.0176-188.8256-421.0176-421.0176-421.0176z" fill="#4B2254" p-id="5136"></path><path d="M668.7744 580.4544H581.12v-18.9952h87.6544c24.2688 0 57.6512-21.0432 45.6704-71.0144-10.496-9.7792-21.4016-16.9472-45.6704-16.9472h-42.1376l53.8112-69.7344c14.7968-19.2 37.7856-48.1792-1.9968-88.064-17.152-17.152-52.8384 15.104-67.6864 34.304l-74.6496 96.768-80.128-97.792c-15.36-18.7392-43.1616-21.5552-61.9008-6.144-18.7392 15.36-21.504 43.1616-6.144 61.9008l56.32 68.7104H405.504c-24.2688 0-43.9808 19.712-43.9808 43.9808s19.712 43.9808 43.9808 43.9808h87.6544v18.9952H405.504c-24.2688 0-43.9808 19.712-43.9808 43.9808s19.712 43.9808 43.9808 43.9808h70.1952v47.5648c0 24.2688 14.9504 56.8832 60.7744 56.8832 28.928 0 60.0064-24.1152 60.0064-59.136v-45.2608h72.2944c24.2688 0 51.5584-19.9168 45.1584-68.7104-7.1168-10.4448-20.9408-19.2512-45.1584-19.2512z" fill="#E3413F" p-id="5137"></path><path d="M659.9168 553.7792h-87.6544v-18.9952h87.6544c24.2688 0 43.9808-19.712 43.9808-43.9808s-19.712-43.9808-43.9808-43.9808h-42.1376l53.8112-69.7344c14.7968-19.2 11.264-46.8992-7.9872-61.696-19.2-14.7968-46.8992-11.2128-61.696 7.9872l-74.6496 96.768-80.128-97.792c-15.36-18.7392-43.1616-21.5552-61.9008-6.144-18.7392 15.36-21.504 43.1616-6.144 61.9008l56.32 68.7104h-38.7072c-24.2688 0-43.9808 19.712-43.9808 43.9808s19.712 43.9808 43.9808 43.9808H484.352v18.9952H396.6976c-24.2688 0-43.9808 19.712-43.9808 43.9808s19.712 43.9808 43.9808 43.9808H484.352v62.976c0 24.2688 19.712 43.9808 43.9808 43.9808s43.9808-19.712 43.9808-43.9808v-62.976h87.6544c24.2688 0 43.9808-19.712 43.9808-43.9808 0-24.2176-19.7632-43.9808-44.032-43.9808z" fill="#F8B031" p-id="5138"></path><path d="M484.3008 704.768c0 3.7376 0.512 7.3728 1.4336 10.8544 6.6048 14.2336 17.664 16.9984 28.6208 15.6672 13.1072-1.5872 22.6816-13.824 22.6816-30.0032V634.368c0-8.2432 6.7072-14.9504 14.9504-14.9504h87.5008c9.5744 0 30.5152-1.3312 30.5152-25.7536 0-24.4224-15.4624-30.5664-35.2256-30.5664H550.4c-7.7824 0-14.1312-6.3488-14.1312-14.1312v-22.8352c0-7.7824 6.3488-14.1312 14.1312-14.1312h96.6656c17.664 0 24.2176-13.4656 24.2176-26.2144 0-36.7616-48.2304-29.696-57.2416-29.3888-6.2976 0.2048-14.848 0.4608-22.7328 0.6656-8.2944 0.256-13.2096-9.216-8.2432-15.872 15.616-20.992 42.3936-56.9344 57.3952-76.9536 13.6704-18.2272 15.8208-39.7824 15.5136-53.6064-18.3808-8.9088-41.1136-4.096-54.0672 12.6976l-74.6496 96.768-80.128-97.792c-15.36-18.7392-43.1616-21.5552-61.9008-6.144-18.7904 15.36-21.504 43.1616-6.144 61.9008l56.32 68.7104h-38.7072c-24.2688 0-43.9808 19.712-43.9808 43.9808s19.712 43.9808 43.9808 43.9808H484.352v18.9952H396.6976c-24.2688 0-43.9808 19.712-43.9808 43.9808s19.712 43.9808 43.9808 43.9808H484.352v63.0784z" fill="#FACF5D" p-id="5139"></path><path d="M528.2816 758.9888c-29.9008 0-54.2208-24.32-54.2208-54.2208v-52.736H396.6976c-29.9008 0-54.2208-24.32-54.2208-54.2208 0-26.8288 19.6096-49.2032 45.2608-53.504-25.6512-4.3008-45.2608-26.624-45.2608-53.504 0-29.9008 24.32-54.2208 54.2208-54.2208h17.1008L371.2 384.5632a53.89312 53.89312 0 0 1-11.9808-39.7312 53.9648 53.9648 0 0 1 19.5584-36.608c23.1424-18.944 57.3952-15.5648 76.3392 7.5776l71.936 87.808 66.7648-86.5792c18.2784-23.6544 52.3776-28.1088 76.0832-9.8304 23.7056 18.2784 28.1088 52.3776 9.8304 76.0832l-41.0624 53.248h21.2992c29.9008 0 54.2208 24.32 54.2208 54.2208 0 26.8288-19.6096 49.2032-45.2608 53.504 25.6512 4.3008 45.2608 26.624 45.2608 53.504 0 29.9008-24.32 54.2208-54.2208 54.2208h-77.4144v52.736c0 29.952-24.32 54.272-54.272 54.272z m-131.584-194.9696c-18.5856 0-33.7408 15.1552-33.7408 33.7408s15.1552 33.7408 33.7408 33.7408H484.352c5.632 0 10.24 4.608 10.24 10.24v62.976c0 18.6368 15.1552 33.7408 33.7408 33.7408s33.7408-15.1552 33.7408-33.7408v-62.976c0-5.632 4.608-10.24 10.24-10.24h87.6544c18.5856 0 33.7408-15.1552 33.7408-33.7408s-15.1552-33.7408-33.7408-33.7408h-87.6544c-5.632 0-10.24-4.608-10.24-10.24v-18.9952c0-5.632 4.608-10.24 10.24-10.24h87.6544c18.5856 0 33.7408-15.1552 33.7408-33.7408s-15.1552-33.7408-33.7408-33.7408h-42.1376c-3.8912 0-7.4752-2.2016-9.1648-5.7344-1.7408-3.4816-1.28-7.68 1.0752-10.752l53.76-69.7344c11.3664-14.7456 8.6016-35.9936-6.0928-47.36-14.7456-11.3664-35.9936-8.6016-47.36 6.144l-74.6496 96.768c-1.8944 2.4576-4.864 3.9424-7.936 3.9936-3.1232 0-6.0928-1.3312-8.0896-3.7376l-80.128-97.792c-11.776-14.3872-33.1264-16.5376-47.5136-4.7104a33.55648 33.55648 0 0 0-12.1856 22.784 33.536 33.536 0 0 0 7.4752 24.7296l56.32 68.7104a10.21952 10.21952 0 0 1-7.936 16.6912h-38.7072c-18.5856 0-33.7408 15.1552-33.7408 33.7408s15.1552 33.7408 33.7408 33.7408H484.352c5.632 0 10.24 4.608 10.24 10.24v18.9952c0 5.632-4.608 10.24-10.24 10.24H396.6976z" fill="#4B2254" p-id="5140"></path></svg>