<svg t="1675663673050" class="icon" viewBox="0 0 1024 1024" version="1.1" xmlns="http://www.w3.org/2000/svg" p-id="4722" width="128" height="128"><path d="M848.042667 698.24a42.965333 42.965333 0 0 1-16.384 58.026667l-299.349334 176.853333a41.557333 41.557333 0 0 1-40.874666 0l-299.093334-176.853333a42.965333 42.965333 0 0 1-16.384-58.026667 41.813333 41.813333 0 0 1 57.216-16.597333l267.818667 158.848a21.333333 21.333333 0 0 0 21.76 0l268.074667-158.848a41.813333 41.813333 0 0 1 57.173333 16.597333z m0-206.933333a42.965333 42.965333 0 0 1-16.384 58.026666l-299.349334 176.853334a41.557333 41.557333 0 0 1-40.874666 0l-299.093334-176.853334a42.965333 42.965333 0 0 1-16.384-58.026666 41.813333 41.813333 0 0 1 57.216-16.597334l267.818667 158.848a21.333333 21.333333 0 0 0 21.76 0l268.074667-158.848a41.813333 41.813333 0 0 1 57.173333 16.597334zM533.76 90.538667l298.922667 176.768c20.096 10.410667 26.624 32.853333 14.549333 50.176a40.021333 40.021333 0 0 1-14.506667 12.544l-298.965333 176.768a48.256 48.256 0 0 1-43.605333 0L191.274667 330.026667c-20.096-10.410667-26.624-32.853333-14.549334-50.176a40.021333 40.021333 0 0 1 14.506667-12.544l298.965333-176.768a48.256 48.256 0 0 1 43.605334 0zM512 175.36L316.330667 298.666667 512 421.973333 707.669333 298.666667 512 175.36z"  p-id="4723"></path></svg>