<svg t="1677550933234" class="icon" viewBox="0 0 1024 1024" version="1.1" xmlns="http://www.w3.org/2000/svg" p-id="2807" width="200" height="200"><path d="M510 425.1c-49.6 0-89.7 39.6-89.7 88.3 0 48.8 40.1 88.3 89.7 88.3 49.5 0 89.7-39.5 89.7-88.3 0-48.7-40.1-88.3-89.7-88.3z m313.8 423.3l25.3-24.9c28-27.6 28-72.3 0-99.9l-43.8-43.1c14.1-24.2 25.2-50.1 32.9-77.6h47.3c39.6 0 71.8-31.6 71.8-70.6V497c0-39-32.2-70.7-71.8-70.7h-46.8c-7.4-27.1-18-53-31.8-77l42.1-41.4c28-27.7 28-72.4 0-99.9l-25.3-25c-28-27.6-73.5-27.6-101.5 0L681 223.4c-25.2-14.5-52.5-25.7-81.3-33.5v-47.5c0-39-32.1-70.6-71.7-70.6h-35.9c-39.6 0-71.7 31.6-71.7 70.6V190c-28.8 7.8-56.1 19-81.3 33.5l-41.3-40.6c-28-27.6-73.5-27.6-101.5 0l-25.4 25c-28 27.5-28 72.3 0 99.9l42.1 41.4c-13.7 24-24.4 49.9-31.7 77h-46.8c-39.7 0-71.8 31.7-71.8 70.7v35.4c0 39 32.1 70.6 71.7 70.6h47.3c7.7 27.5 18.8 53.4 32.9 77.6l-43.8 43.1c-28 27.6-28 72.3 0 99.9l25.4 24.9c28 27.6 73.5 27.6 101.5 0l44-43.4c24.5 13.7 50.8 24.4 78.6 31.8v45.3c0 39 32.1 70.6 71.7 70.6h35.9c39.6 0 71.7-31.6 71.7-70.6v-45.3c27.8-7.4 54.1-18.1 78.5-31.8l44.1 43.4c28.1 27.6 73.6 27.6 101.6 0zM510 709.9c-109 0-197.3-87-197.3-194.2 0-107.4 88.4-194.3 197.3-194.3 109 0 197.3 86.9 197.3 194.3 0.1 107.2-88.3 194.2-197.3 194.2z" p-id="2808"></path></svg>