<svg t="1675911671749" class="icon" viewBox="0 0 1024 1024" version="1.1" xmlns="http://www.w3.org/2000/svg" p-id="30036" width="200" height="200"><path d="M1002.003845 512c0 47.254822-38.308713 85.563535-85.563535 85.563535h-30.950201c-38.904062 171.460465-192.234171 299.468403-375.474605 299.468403-183.240434 0-336.570543-128.007938-375.474605-299.468403H103.590698c-47.254822 0-85.563535-38.308713-85.563535-85.563535S56.335876 426.436465 103.590698 426.436465h30.950201c38.904062-171.460465 192.234171-299.468403 375.474605-299.468403 183.240434 0 336.570543 128.007938 375.474605 299.468403h30.950201c47.254822 0 85.563535 38.308713 85.563535 85.563535z" fill="#FED766" p-id="30037"></path><path d="M18.027163 512h983.976682c0 47.254822-38.308713 85.563535-85.563535 85.563535h-30.950201c-38.904062 171.460465-192.234171 299.468403-375.474605 299.468403-183.240434 0-336.570543-128.007938-375.474605-299.468403H103.590698c-47.254822 0-85.563535-38.308713-85.563535-85.563535z" fill="#E8BA52" p-id="30038"></path><path d="M725.388899 417.141085a234.448372 234.448372 0 0 1 19.924341 94.858915c0 129.944806-105.344992 235.297736-235.297736 235.297736-129.944806 0-235.297736-105.344992-235.297737-235.297736 0-129.944806 105.344992-235.297736 235.297737-235.297736 33.75231 0 65.845581 7.120372 94.858915 19.924341a85.198388 85.198388 0 0 1 54.875286-19.924341c47.254822 0 85.563535 38.308713 85.563535 85.563534 0 20.884837-7.493457 40.01538-19.924341 54.875287z" fill="#DCF3F9" p-id="30039"></path><path d="M725.388899 417.141085a234.488062 234.488062 0 0 1 19.924341 94.858915c0 129.944806-105.344992 235.297736-235.297736 235.297736-129.944806 0-235.297736-105.344992-235.297737-235.297736 0-129.944806 105.344992-235.297736 235.297737-235.297736 33.75231 0 65.845581 7.120372 94.858915 19.924341a85.373023 85.373023 0 0 0-30.688248 65.639193c0 47.254822 38.308713 85.563535 85.563534 85.563535 26.369984 0 49.945798-11.938729 65.647132-30.688248z" fill="#84A7B7" p-id="30040"></path><path d="M654.407442 512c0 79.617984-64.773953 144.391938-144.391938 144.391938-79.617984 0-144.391938-64.773953-144.391938-144.391938 0-45.992682 21.154729-88.167194 58.034605-115.727876a16.050605 16.050605 0 0 1 19.209922 25.703194c-28.695814 21.448434-45.151256 54.256124-45.151256 90.024682 0 61.924217 50.37445 112.298667 112.298667 112.298667S622.314171 573.924217 622.314171 512l-0.007938-0.277829a48.00893 48.00893 0 0 1-0.031752-1.079566 16.034729 16.034729 0 0 1 15.852155-16.233179h0.198449c8.771473 0 15.931535 7.056868 16.034729 15.852155l0.015876 0.309582 0.023814 1.428837zM506.602171 399.741023h0.420713c0.992248-0.023814 1.984496-0.03969 2.944992-0.03969l0.317519 0.007938 1.079566 0.031752h0.190512a16.018853 16.018853 0 0 0 16.018853-15.820403 16.066481 16.066481 0 0 0-15.820404-16.26493l-0.317519-0.007938c-1.746357-0.063504-3.500651-0.023814-5.23907 0.015876a16.034729 16.034729 0 0 0 0.404838 32.077395z" fill="#FFFFFF" p-id="30041"></path><path d="M916.44031 410.393798h-18.35262c-21.535752-82.277209-69.528806-156.63231-136.120558-210.46772-71.005271-57.391628-160.482233-89.000682-251.951628-89.000683s-180.946357 31.609054-251.951628 89.000683C191.464186 253.761488 143.47907 328.116589 121.943318 410.393798H103.590698C47.564403 410.393798 1.984496 455.973705 1.984496 512c0 56.026295 45.579907 101.606202 101.606202 101.606202h18.35262c21.527814 82.277209 69.520868 156.63231 136.120558 210.46772 71.005271 57.391628 160.482233 89.000682 251.951628 89.000683s180.946357-31.609054 251.951628-89.000683c66.59969-53.835411 114.584806-128.190512 136.120558-210.46772h18.35262c56.026295 0 101.606202-45.579907 101.606202-101.606202 0-56.026295-45.579907-101.606202-101.606202-101.606202z m0 171.12707h-30.950201c-7.493457 0-13.986729 5.183504-15.63783 12.494388-38.348403 168.967938-186.320372 286.974016-359.836775 286.974015-173.524341 0-321.488372-118.006078-359.828837-286.974015a16.042667 16.042667 0 0 0-15.645768-12.494388H103.590698c-38.340465 0-69.520868-31.188341-69.520869-69.520868 0-38.332527 31.188341-69.520868 69.520869-69.520868h30.950201c7.493457 0 13.986729-5.183504 15.63783-12.494388C188.527132 261.016806 336.491163 143.010729 510.015504 143.010729c173.524341 0 321.488372 118.006078 359.828837 286.974015a16.042667 16.042667 0 0 0 15.645768 12.494388h30.950201c38.340465 0 69.520868 31.188341 69.520868 69.520868 0 38.332527-31.188341 69.520868-69.520868 69.520868zM659.749705 260.659597c-21.170605 0-40.848868 6.517085-57.14555 17.646139a249.522605 249.522605 0 0 0-92.588651-17.646139c-138.597209 0-251.340403 112.751132-251.340403 251.340403 0 138.597209 112.751132 251.340403 251.340403 251.340403 138.597209 0 251.340403-112.751132 251.340403-251.340403 0-32.029767-5.937612-63.130791-17.64614-92.588651a101.018791 101.018791 0 0 0 17.64614-57.153489c0-56.018357-45.579907-101.606202-101.606202-101.606201z m69.520869 101.606201c0 38.332527-31.188341 69.520868-69.520869 69.520869-38.340465 0-69.520868-31.196279-69.520868-69.520869 0-38.340465 31.188341-69.520868 69.520868-69.520868 38.340465 0 69.520868 31.188341 69.520869 69.520868zM510.015504 731.247132c-120.895504 0-219.25507-98.351628-219.25507-219.25507 0-120.895504 98.351628-219.25507 219.25507-219.25507 23.051907 0 45.548155 3.516527 67.131535 10.470202a101.018791 101.018791 0 0 0-19.003535 59.050666c0 56.018357 45.579907 101.606202 101.606201 101.606202 22.012031 0 42.396775-7.064806 59.058605-19.003535A218.143752 218.143752 0 0 1 729.262636 512c0 120.895504-98.351628 219.25507-219.25507 219.25507zM493.972837 41.404527V20.003721a16.034729 16.034729 0 1 1 32.085334 0v21.392868a16.034729 16.034729 0 1 1-32.085334 0z m32.085334 941.190946v21.392868a16.034729 16.034729 0 1 1-32.085334 0v-21.392868a16.034729 16.034729 0 1 1 32.085334 0zM150.782016 175.461209a16.034729 16.034729 0 1 1 22.686759-22.694697l15.129799 15.129798a16.034729 16.034729 0 1 1-22.68676 22.68676l-15.129798-15.129799z m718.466976 673.08552a16.034729 16.034729 0 1 1-22.694697 22.686759l-15.121861-15.129798a16.034729 16.034729 0 1 1 22.68676-22.68676l15.129798 15.129799z m-37.816558-657.963659a16.034729 16.034729 0 0 1 0-22.68676l15.129799-15.12186a16.042667 16.042667 0 0 1 22.686759 22.686759l-15.129798 15.121861a16.002977 16.002977 0 0 1-11.34338 4.699287 16.002977 16.002977 0 0 1-11.34338-4.699287z m-642.83386 642.83386c6.271008 6.271008 6.271008 16.42369 0 22.68676l-15.121861 15.12186a16.002977 16.002977 0 0 1-11.351318 4.707225 16.034729 16.034729 0 0 1-11.351317-27.386046l15.137736-15.129799a16.050605 16.050605 0 0 1 22.68676 0z" fill="#4C4C4C" p-id="30042"></path></svg>