<svg t="1676256527385" class="icon" viewBox="0 0 1024 1024" version="1.1" xmlns="http://www.w3.org/2000/svg" p-id="4263" width="200" height="200"><path d="M0 0h1024v1024H0V0z" fill="#202425" opacity=".01" p-id="4264"></path><path d="M512 17.066667A51.2 51.2 0 0 1 563.2 68.266667v34.133333a51.2 51.2 0 0 1-102.4 0V68.266667A51.2 51.2 0 0 1 512 17.066667z m377.514667 151.552a51.2 51.2 0 0 1 0 72.362666l-34.133334 34.133334a51.2 51.2 0 0 1-72.362666-72.362667l34.133333-34.133333a51.2 51.2 0 0 1 72.362667 0zM955.733333 563.2a51.2 51.2 0 0 0 0-102.4h-34.133333a51.2 51.2 0 0 0 0 102.4h34.133333z m-853.333333 0a51.2 51.2 0 0 0 0-102.4H68.266667a51.2 51.2 0 0 0 0 102.4h34.133333z m138.581333-288.085333a51.2 51.2 0 0 1-72.362666 0l-34.133334-34.133334a51.2 51.2 0 1 1 72.362667-72.362666l34.133333 34.133333a51.2 51.2 0 0 1 0 72.362667zM512 170.666667C323.4816 170.666667 170.666667 323.4816 170.666667 512v409.6a34.133333 34.133333 0 0 0 34.133333 34.133333h614.4a34.133333 34.133333 0 0 0 34.133333-34.133333V512c0-188.5184-152.814933-341.333333-341.333333-341.333333z" fill="#FF7744" p-id="4265"></path><path d="M375.466667 460.8a51.2 51.2 0 0 1 51.2 51.2v204.8a51.2 51.2 0 0 1-102.4 0v-204.8a51.2 51.2 0 0 1 51.2-51.2z" fill="#FFFFFF" p-id="4266"></path><path d="M34.133333 955.733333a68.266667 68.266667 0 0 1 68.266667-68.266666h819.2a68.266667 68.266667 0 1 1 0 136.533333H102.4a68.266667 68.266667 0 0 1-68.266667-68.266667z" fill="#FFAA44" p-id="4267"></path></svg>