<svg t="1670997138958" class="icon" viewBox="0 0 1024 1024" version="1.1" xmlns="http://www.w3.org/2000/svg" p-id="20525" id="mx_n_1670997138959" width="240" height="240"><path d="M876 330.57H596.89V225.71c0-26.24-23.18-47.59-51.67-47.59h-66.28c-28.49 0-51.67 21.35-51.67 47.59v104.86H148a28.07 28.07 0 0 0-28 28v138a28.07 28.07 0 0 0 28 28h67V898a27.9 27.9 0 0 0 27.87 27.87h538.42A27.9 27.9 0 0 0 809.17 898V524.66H876a28.07 28.07 0 0 0 28-28v-138a28.07 28.07 0 0 0-28-28.09zM481.66 232.5h60.84v98.06h-60.84z m273.12 639H269.39V524.66h485.39z m94.83-401.26H174.38V385h675.24z" p-id="20526"></path><path d="M339.92 655.18h54.39v196.47h-54.39zM484.89 600.12h54.39v251.53h-54.39zM622.22 655.18h54.39v196.47h-54.39z" p-id="20527"></path></svg>