<svg t="1670318816437" class="icon" viewBox="0 0 1024 1024" version="1.1" xmlns="http://www.w3.org/2000/svg" p-id="6744" width="200" height="200"><path d="M889.12 656V66.24a34.24 34.24 0 0 0-68.48 0V656a101.44 101.44 0 0 0 0 192v109.76a34.24 34.24 0 0 0 68.48 0V848a103.36 103.36 0 0 0 68.64-96 96.96 96.96 0 0 0-68.64-96z m-34.24 130.24A34.24 34.24 0 1 1 889.12 752a32 32 0 0 1-34.24 34.24zM203.36 656V66.24A32 32 0 0 0 169.12 32a32 32 0 0 0-34.24 34.24V656a96.96 96.96 0 0 0-68.64 96 103.36 103.36 0 0 0 68.64 96v109.76A32 32 0 0 0 169.12 992a32 32 0 0 0 34.24-34.24V848A103.04 103.04 0 0 0 272 752a96 96 0 0 0-68.64-96z m-34.24 130.24a34.24 34.24 0 0 1 0-68.48 34.24 34.24 0 0 1 0 68.48zM546.24 176V66.24a34.24 34.24 0 0 0-68.48 0V176a101.44 101.44 0 0 0 0 192v589.76a34.24 34.24 0 0 0 68.48 0V368a101.44 101.44 0 0 0 0-192zM512 306.24A32 32 0 0 1 477.76 272a34.24 34.24 0 0 1 68.48 0A32 32 0 0 1 512 306.24z" fill="#4592D8" p-id="6745"></path></svg>