<svg t="1670813247651" class="icon" viewBox="0 0 1024 1024" version="1.1" xmlns="http://www.w3.org/2000/svg" p-id="3572" width="200" height="200"><path d="M790.528 765.3376c0 46.4896-17.6128 80.2816-64.512 80.2816H215.8592c-46.8992 0-70.656-21.504-70.656-67.9936V246.3744c0-46.4896 17.6128-61.6448 64.512-61.6448h208.2816c18.6368 0 33.792-13.1072 33.792-31.9488 0-16.5888-13.5168-30.1056-30.3104-30.1056H187.392c-56.7296-0.2048-102.8096 45.4656-103.0144 101.9904v580.8128c0.2048 56.7296 46.4896 102.4 103.0144 102.1952h562.7904c56.7296 0 103.0144-45.8752 103.0144-102.1952V582.0416c0-18.2272-14.9504-32.9728-33.1776-32.5632-17.6128 0.4096-29.696 14.7456-29.696 32.3584l0.2048 183.5008z m101.376-592.2816l-60.2112-53.6576c-15.7696-15.7696-37.2736-24.3712-59.392-24.3712-22.528 0-43.4176 8.6016-59.392 24.3712l-340.992 342.016c-12.4928 12.4928-50.5856 48.3328-51.2 65.7408v0.4096L289.792 700.416c-2.048 9.4208 6.144 17.8176 15.5648 15.7696l187.5968-33.1776c8.192-1.4336 38.2976-32.768 54.0672-48.3328l351.232-348.16c15.7696-15.7696 20.48-32.5632 20.48-54.6816-0.2048-22.1184-11.0592-43.008-26.8288-58.7776z m-455.0656 471.04l-87.8592 20.8896c-5.7344 1.2288-11.0592-3.8912-9.6256-9.6256l22.9376-84.1728c0.4096-2.2528 3.2768-3.072 4.9152-1.4336l70.4512 69.8368c1.2288 1.4336 0.8192 3.6864-0.8192 4.5056z m42.5984-24.576c-1.2288 0.6144-2.6624 0.6144-3.6864-0.4096l-88.4736-89.7024c-1.024-1.024-1.2288-2.6624-0.2048-3.8912 9.4208-12.4928 271.5648-274.432 271.5648-274.432 1.2288-1.2288 3.072-1.2288 4.096 0l94.0032 93.184c1.2288 1.2288 1.2288 3.072 0 4.096 0.2048 0.2048-266.0352 264.192-277.2992 271.1552z m373.9648-360.6528l-60.416 60.2112c-1.024 1.024-2.8672 1.024-4.096 0l-98.304-95.232c-1.2288-1.2288-1.2288-2.8672 0-4.096L751.2064 159.744c6.3488-6.3488 14.9504-9.8304 23.9616-9.8304s17.6128 3.4816 23.9616 9.8304l54.4768 52.0192c6.3488 6.3488 9.8304 14.7456 9.8304 23.7568 0 8.6016-3.6864 17.2032-10.0352 23.3472z m0 0" fill="#666666" p-id="3573"></path></svg>