<svg t="1677465563783" class="icon" viewBox="0 0 1024 1024" version="1.1"
    xmlns="http://www.w3.org/2000/svg" p-id="2925" width="200" height="200">
    <path
        d="M950.66749 734.408834a31.970084 31.970084 0 0 0-45.213286 0l-60.985194 60.959906a15.085545 15.085545 0 0 1-10.750618 4.425238 15.085545 15.085545 0 0 1-10.750618-4.42885l-85.546166-85.553391 71.724974-71.721363a31.970084 31.970084 0 1 0-45.213285-45.20606l-71.721363 71.721362-177.898167-177.937904a254.991226 254.991226 0 0 0 61.686007-166.667095c0-141.383635-114.615462-255.999097-255.999097-255.999097S64.00158 178.61343 64.00158 320.000677s114.615462 255.999097 255.999097 255.999097a254.821442 254.821442 0 0 0 146.899829-46.318692l202.032872 202.079834c0.216746 0.231196 0.42988 0.466005 0.657464 0.689976s0.455167 0.433493 0.682751 0.650239L777.758101 840.574801a78.592221 78.592221 0 0 0 55.953066 23.159346 78.603059 78.603059 0 0 0 55.963904-23.152121l60.985194-60.970744a31.952022 31.952022 0 0 0 0.007225-45.202448z m-555.929064-237.416712a191.722971 191.722971 0 0 1-182.066922-17.70095 192.80309 192.80309 0 0 1-69.655047-84.556358 191.722971 191.722971 0 0 1 17.700951-182.066922 192.80309 192.80309 0 0 1 84.541908-69.662272 191.722971 191.722971 0 0 1 182.066922 17.70095 192.806703 192.806703 0 0 1 69.655047 84.556358 191.722971 191.722971 0 0 1-17.700951 182.066922 192.806703 192.806703 0 0 1-84.541908 69.662272z"
        fill="" p-id="2926"></path>
</svg>