<svg t="1670318952245" class="icon" viewBox="0 0 1024 1024" version="1.1" xmlns="http://www.w3.org/2000/svg" p-id="10015" width="200" height="200"><path d="M580.581 524.623c0-20.128 5.844-39.823 16.823-56.698L780.16 187.024H242.612l177.76 281.898a103.964 103.964 0 0 1 16.027 55.454v174.438l144.182 88.03V524.623zM170.045 115H853.96c17.695 0 32.04 14.332 32.04 32.01a31.99 31.99 0 0 1-5.176 17.446L657.848 507.177a31.99 31.99 0 0 0-5.176 17.446v376.374c0 4.42-3.586 8.003-8.01 8.003a8.016 8.016 0 0 1-4.177-1.174l-268.51-163.937a16.002 16.002 0 0 1-7.667-13.657V524.376c0-6.038-1.71-11.954-4.93-17.063l-216.443-343.24c-9.432-14.958-4.941-34.723 10.03-44.146a32.062 32.062 0 0 1 17.08-4.927z m470.612 192.064c-22.12 0-40.05-17.915-40.05-40.013 0-22.1 17.93-40.014 40.05-40.014 22.119 0 40.05 17.915 40.05 40.014 0 22.098-17.931 40.013-40.05 40.013z" fill="#5090F1" p-id="10016"></path></svg>