<svg t="1670989868739" class="icon" viewBox="0 0 1024 1024" version="1.1" xmlns="http://www.w3.org/2000/svg" p-id="17754" width="200" height="200"><path d="M810.688 362.688c-40.64 0-77.376-16.32-104.32-42.688L453.824 457.792C458.752 475.136 462.208 493.056 462.208 512c0 18.944-3.52 36.864-8.448 54.208L706.368 704c26.944-26.304 63.68-42.688 104.32-42.688 82.496 0 149.312 66.88 149.312 149.312S893.12 960 810.688 960s-149.312-66.88-149.312-149.312c0-10.304 1.024-20.352 3.008-30.016l-252.352-137.664c-36.48 41.472-89.344 68.096-148.864 68.096C153.152 711.104 64 621.952 64 512s89.152-199.104 199.104-199.104c59.584 0 112.384 26.688 148.864 68.096l252.352-137.664c-1.984-9.728-3.008-19.712-3.008-30.016C661.312 130.88 728.192 64 810.688 64 893.12 64 960 130.88 960 213.312S893.12 362.688 810.688 362.688z" p-id="17755"></path></svg>